<?xml version="1.0" standalone="no"?><!DOCTYPE svg PUBLIC "-//W3C//DTD SVG 1.1//EN" "http://www.w3.org/Graphics/SVG/1.1/DTD/svg11.dtd"><svg height="1366" node-id="1" sillyvg="true" template-height="1366" template-width="1366" version="1.1" viewBox="0 0 1366 1366" width="1366" xmlns="http://www.w3.org/2000/svg" xmlns:xlink="http://www.w3.org/1999/xlink"><defs node-id="15"></defs><path d="M 1075.81 683.00 C 1075.81 689.41 1075.65 695.82 1075.34 702.23 C 1075.03 708.64 1074.55 715.03 1073.92 721.41 C 1073.29 727.79 1072.50 734.15 1071.56 740.50 C 1070.62 746.85 1069.52 753.18 1068.27 759.50 C 1067.01 765.79 1065.60 772.04 1064.04 778.27 C 1062.48 784.50 1060.77 790.67 1058.90 796.80 C 1057.03 802.94 1055.01 809.03 1052.85 815.07 C 1050.69 821.11 1048.38 827.09 1045.91 833.00 C 1043.45 838.93 1040.85 844.79 1038.10 850.59 C 1035.35 856.39 1032.46 862.12 1029.43 867.77 C 1026.40 873.42 1023.24 878.99 1019.93 884.50 C 1016.62 890.01 1013.18 895.42 1009.61 900.75 C 1006.04 906.08 1002.34 911.33 998.51 916.48 C 994.68 921.63 990.73 926.67 986.65 931.60 C 982.57 936.56 978.37 941.41 974.06 946.16 C 969.75 950.91 965.31 955.55 960.76 960.09 C 956.22 964.63 951.55 969.05 946.76 973.36 C 941.97 977.67 937.10 981.85 932.16 985.92 C 927.22 989.97 922.17 993.92 917.00 997.75 C 911.83 1001.58 906.58 1005.28 901.24 1008.83 C 895.91 1012.39 890.48 1015.82 884.95 1019.12 C 879.42 1022.42 873.83 1025.58 868.17 1028.60 C 862.50 1031.62 856.76 1034.50 850.95 1037.24 C 845.14 1039.98 839.26 1042.58 833.32 1045.04 C 827.38 1047.50 821.38 1049.81 815.32 1051.96 C 809.26 1054.11 803.15 1056.13 797.00 1058.00 C 790.85 1059.87 784.66 1061.58 778.42 1063.14 C 772.18 1064.70 765.91 1066.10 759.60 1067.35 C 753.30 1068.60 746.97 1069.70 740.60 1070.64 C 734.23 1071.58 727.87 1072.37 721.50 1073.00 C 715.10 1073.63 708.69 1074.10 702.27 1074.42 C 695.85 1074.74 689.43 1074.90 683.00 1074.89 C 676.57 1074.89 670.15 1074.73 663.73 1074.42 C 657.31 1074.11 650.90 1073.63 644.50 1073.00 C 638.10 1072.38 631.72 1071.60 625.36 1070.65 C 619.00 1069.70 612.67 1068.61 606.36 1067.36 C 600.05 1066.11 593.77 1064.71 587.54 1063.15 C 581.31 1061.59 575.13 1059.87 569.00 1058.00 C 562.85 1056.14 556.75 1054.14 550.69 1052.00 C 544.63 1049.86 538.63 1047.55 532.69 1045.08 C 526.75 1042.63 520.87 1040.03 515.06 1037.28 C 509.25 1034.53 503.51 1031.65 497.84 1028.64 C 492.17 1025.61 486.58 1022.45 481.06 1019.16 C 475.54 1015.87 470.11 1012.44 464.77 1008.87 C 459.44 1005.30 454.18 1001.60 449.01 997.79 C 443.84 993.98 438.77 990.03 433.81 985.96 C 428.84 981.89 423.97 977.71 419.21 973.40 C 414.45 969.09 409.78 964.67 405.21 960.13 C 400.66 955.60 396.22 950.95 391.91 946.20 C 387.60 941.45 383.41 936.58 379.35 931.60 C 375.27 926.64 371.32 921.59 367.49 916.44 C 363.66 911.29 359.96 906.05 356.39 900.71 C 352.81 895.38 349.37 889.96 346.07 884.46 C 342.77 878.96 339.60 873.38 336.57 867.73 C 333.54 862.07 330.65 856.34 327.90 850.55 C 325.15 844.76 322.54 838.91 320.09 833.00 C 317.63 827.08 315.32 821.10 313.15 815.06 C 310.98 809.02 308.98 802.93 307.15 796.79 C 305.28 790.66 303.56 784.49 302.01 778.26 C 300.46 772.03 299.05 765.78 297.78 759.49 C 296.53 753.20 295.44 746.86 294.49 740.49 C 293.54 734.12 292.76 727.75 292.13 721.40 C 291.50 715.02 291.03 708.63 290.71 702.22 C 290.39 695.81 290.22 689.41 290.19 683.00 C 290.19 676.59 290.35 670.18 290.66 663.77 C 290.97 657.36 291.45 650.97 292.08 644.59 C 292.71 638.21 293.49 631.85 294.44 625.50 C 295.39 619.15 296.48 612.82 297.73 606.50 C 298.99 600.21 300.40 593.96 301.96 587.73 C 303.52 581.50 305.23 575.33 307.10 569.20 C 308.97 563.06 310.97 556.97 313.10 550.93 C 315.23 544.89 317.56 538.91 320.09 533.00 C 322.55 527.07 325.15 521.21 327.90 515.41 C 330.65 509.61 333.54 503.88 336.57 498.23 C 339.60 492.58 342.77 487.01 346.07 481.50 C 349.37 475.99 352.81 470.58 356.39 465.25 C 359.96 459.92 363.66 454.67 367.49 449.52 C 371.32 444.37 375.27 439.31 379.35 434.36 C 383.43 429.40 387.63 424.55 391.94 419.80 C 396.25 415.05 400.69 410.41 405.24 405.87 C 409.78 401.33 414.45 396.91 419.24 392.60 C 424.03 388.29 428.90 384.11 433.84 380.04 C 438.81 375.97 443.87 372.03 449.04 368.21 C 454.21 364.39 459.46 360.70 464.80 357.13 C 470.13 353.57 475.56 350.14 481.09 346.84 C 486.62 343.54 492.21 340.38 497.87 337.36 C 503.54 334.34 509.28 331.46 515.09 328.71 C 520.90 325.96 526.76 323.39 532.68 321.00 C 538.62 318.55 544.62 316.24 550.68 314.08 C 556.74 311.92 562.85 309.89 569.00 308.00 C 575.15 306.14 581.34 304.43 587.58 302.87 C 593.82 301.31 600.09 299.91 606.40 298.66 C 612.70 297.41 619.03 296.32 625.40 295.37 C 631.77 294.42 638.13 293.63 644.50 293.00 C 650.90 292.37 657.31 291.90 663.73 291.58 C 670.15 291.26 676.57 291.10 683.00 291.11 C 689.43 291.11 695.85 291.27 702.27 291.58 C 708.69 291.89 715.10 292.37 721.50 293.00 C 727.90 293.63 734.28 294.41 740.64 295.35 C 747.00 296.29 753.33 297.39 759.64 298.64 C 765.95 299.89 772.23 301.30 778.46 302.85 C 784.69 304.40 790.87 306.12 797.00 308.00 C 803.15 309.87 809.25 311.87 815.31 314.00 C 821.37 316.13 827.37 318.43 833.31 320.92 C 839.25 323.37 845.13 325.97 850.94 328.71 C 856.75 331.45 862.49 334.33 868.16 337.36 C 873.83 340.39 879.43 343.55 884.94 346.84 C 890.45 350.13 895.88 353.56 901.23 357.13 C 906.56 360.70 911.82 364.39 916.99 368.21 C 922.16 372.03 927.23 375.97 932.19 380.04 C 937.16 384.11 942.02 388.29 946.79 392.60 C 951.56 396.91 956.22 401.33 960.79 405.87 C 965.34 410.40 969.77 415.04 974.09 419.80 C 978.41 424.56 982.61 429.41 986.68 434.36 C 990.76 439.32 994.71 444.37 998.54 449.52 C 1002.37 454.67 1006.07 459.91 1009.64 465.25 C 1013.22 470.58 1016.66 476.00 1019.96 481.50 C 1023.26 487.00 1026.43 492.58 1029.46 498.23 C 1032.49 503.89 1035.38 509.62 1038.13 515.41 C 1040.88 521.20 1043.49 527.07 1045.94 533.00 C 1048.41 538.92 1050.73 544.90 1052.88 550.94 C 1055.03 556.98 1057.05 563.07 1058.93 569.21 C 1060.80 575.34 1062.51 581.51 1064.07 587.74 C 1065.63 593.97 1067.04 600.22 1068.30 606.51 C 1069.55 612.80 1070.65 619.14 1071.59 625.51 C 1072.53 631.88 1073.32 638.25 1073.95 644.60 C 1074.58 650.98 1075.05 657.37 1075.37 663.78 C 1075.69 670.19 1075.84 676.59 1075.81 683.00 Z" fill="#eff0f9" fill-rule="nonzero" node-id="17" stroke="none" target-height="783.7933" target-width="785.64667" target-x="290.19" target-y="291.10333"></path><path d="M 327.00 462.00 L 454.47 462.00 C 468.00 461.99 478.98 472.96 479.00 486.49 L 479.00 766.06 L 510.67 766.06 L 510.67 862.06 L 479.00 862.06 L 479.00 936.38 C 479.00 939.63 477.70 942.75 475.40 945.04 C 473.10 947.34 469.98 948.63 466.73 948.62 L 389.10 948.62 L 389.10 862.00 L 198.10 862.00 Z M 389.10 766.06 L 389.10 558.59 L 325.85 766.06 Z" fill="#ffffff" fill-rule="nonzero" node-id="19" stroke="none" target-height="486.63083" target-width="312.57" target-x="198.1" target-y="461.99448"></path><path d="M 479.00 766.06 L 479.00 486.49 C 478.98 472.96 468.00 461.99 454.47 462.00 L 327.00 462.00 L 200.00 855.92 L 198.00 862.04 L 389.00 862.04 L 389.00 948.60 L 466.65 948.60 C 469.92 948.63 473.06 947.35 475.38 945.05 C 477.70 942.75 479.00 939.62 479.00 936.35 L 479.00 862.00 L 510.67 862.00 L 510.67 766.00 Z M 504.53 772.19 L 479.00 772.19 C 477.37 772.19 475.81 771.55 474.66 770.40 C 473.51 769.25 472.87 767.69 472.87 766.06 L 472.87 486.49 C 472.85 476.33 464.61 468.11 454.45 468.12 L 331.45 468.12 L 206.45 855.91 L 389.10 855.91 C 390.73 855.91 392.29 856.55 393.44 857.70 C 394.59 858.85 395.24 860.40 395.24 862.03 L 395.24 942.47 L 466.75 942.47 C 468.38 942.47 469.94 941.83 471.09 940.68 C 472.24 939.53 472.89 937.98 472.89 936.35 L 472.89 862.00 C 472.89 860.38 473.54 858.82 474.69 857.67 C 475.84 856.52 477.40 855.88 479.02 855.88 L 504.55 855.88 Z M 389.08 772.19 C 390.71 772.19 392.27 771.55 393.42 770.40 C 394.57 769.25 395.22 767.69 395.22 766.06 L 395.22 558.59 C 395.19 555.57 392.97 553.01 389.98 552.57 C 386.99 552.13 384.12 553.92 383.22 556.81 L 320.00 764.28 C 319.44 766.14 319.79 768.15 320.95 769.71 C 322.10 771.27 323.93 772.19 325.87 772.19 Z M 332.25 766.06 L 325.83 766.06 L 327.70 759.94 L 383.00 578.72 L 389.14 558.59 L 389.14 766.06 L 332.27 766.06 Z" fill="#000000" fill-rule="evenodd" node-id="21" stroke="none" target-height="486.63217" target-width="312.67" target-x="198" target-y="461.99448"></path><path d="M 984.24 462.00 L 1111.67 462.00 C 1118.17 461.99 1124.42 464.57 1129.02 469.16 C 1133.62 473.76 1136.21 480.00 1136.22 486.50 L 1136.22 766.06 L 1167.88 766.06 L 1167.88 862.06 L 1136.22 862.06 L 1136.22 936.38 C 1136.21 939.63 1134.92 942.75 1132.61 945.04 C 1130.31 947.34 1127.19 948.63 1123.94 948.62 L 1046.30 948.62 L 1046.30 862.00 L 855.30 862.00 Z M 1046.30 766.07 L 1046.30 558.59 L 983.05 766.06 Z" fill="#ffffff" fill-rule="nonzero" node-id="23" stroke="none" target-height="486.63327" target-width="312.58002" target-x="855.3" target-y="461.99203"></path><path d="M 1136.22 766.06 L 1136.22 486.49 C 1136.21 479.99 1133.62 473.75 1129.02 469.15 C 1124.42 464.56 1118.17 461.98 1111.67 461.99 L 984.24 461.99 L 857.24 855.91 L 855.24 862.03 L 1046.24 862.03 L 1046.24 948.59 L 1123.88 948.59 C 1127.13 948.60 1130.25 947.31 1132.55 945.01 C 1134.86 942.72 1136.15 939.60 1136.16 936.35 L 1136.16 862.00 L 1167.82 862.00 L 1167.82 766.00 Z M 1161.74 772.19 L 1136.22 772.19 C 1134.59 772.19 1133.03 771.55 1131.88 770.40 C 1130.73 769.25 1130.08 767.69 1130.08 766.06 L 1130.08 486.49 C 1130.07 481.61 1128.13 476.94 1124.68 473.49 C 1121.23 470.05 1116.55 468.11 1111.67 468.12 L 988.67 468.12 L 863.67 855.91 L 1046.30 855.91 C 1047.92 855.91 1049.48 856.55 1050.63 857.70 C 1051.78 858.85 1052.43 860.41 1052.43 862.03 L 1052.43 942.47 L 1123.94 942.47 C 1125.57 942.47 1127.13 941.83 1128.28 940.68 C 1129.43 939.53 1130.08 937.98 1130.08 936.35 L 1130.08 862.00 C 1130.08 860.37 1130.73 858.82 1131.88 857.67 C 1133.03 856.52 1134.59 855.88 1136.22 855.88 L 1161.74 855.88 Z M 1046.30 772.19 C 1047.93 772.19 1049.49 771.55 1050.64 770.40 C 1051.79 769.25 1052.43 767.69 1052.43 766.06 L 1052.43 558.59 C 1052.40 555.57 1050.18 553.01 1047.19 552.57 C 1044.20 552.13 1041.33 553.92 1040.43 556.81 L 977.17 764.28 C 976.19 767.52 978.02 770.94 981.26 771.92 C 981.84 772.10 982.44 772.19 983.05 772.19 Z M 989.46 766.06 L 983.05 766.06 L 984.91 759.94 L 1040.16 578.72 L 1046.30 558.59 L 1046.30 766.06 L 989.46 766.06 Z" fill="#000000" fill-rule="evenodd" node-id="25" stroke="none" target-height="486.6133" target-width="312.57996" target-x="855.24" target-y="461.98203"></path><path d="M 630.42 725.69 L 748.72 817.47 L 748.72 686.35 L 630.42 594.56 Z" fill="#2936ff" fill-rule="nonzero" node-id="27" stroke="none" target-height="222.90997" target-width="118.29999" target-x="630.42" target-y="594.56"></path><path d="M 630.42 725.69 L 630.42 594.56 L 748.72 686.35 L 748.72 817.47 L 742.58 812.71 Z M 742.58 805.00 L 742.58 689.34 L 636.58 607.08 L 636.58 722.69 Z" fill="#000000" fill-rule="evenodd" node-id="29" stroke="none" target-height="222.90997" target-width="118.29999" target-x="630.42" target-y="594.56"></path><path d="M 846.75 943.83 L 533.29 943.83 L 533.29 450.33 L 846.75 450.33 Z M 637.75 546.92 L 637.75 847.23 L 742.26 847.23 L 742.26 546.92 Z" fill="#ffffff" fill-rule="nonzero" node-id="31" stroke="none" target-height="493.50003" target-width="313.46002" target-x="533.29" target-y="450.33"></path><path d="M 846.75 943.83 L 533.29 943.83 L 533.29 450.33 L 846.75 450.33 Z M 840.61 937.70 L 539.43 937.70 L 539.43 456.45 L 840.61 456.45 Z M 637.78 540.80 C 636.15 540.80 634.59 541.44 633.44 542.59 C 632.29 543.74 631.64 545.29 631.64 546.92 L 631.64 847.23 C 631.64 848.86 632.29 850.41 633.44 851.56 C 634.59 852.71 636.15 853.35 637.78 853.35 L 742.26 853.35 C 743.89 853.35 745.45 852.71 746.60 851.56 C 747.75 850.41 748.40 848.86 748.40 847.23 L 748.40 546.92 C 748.40 545.29 747.75 543.74 746.60 542.59 C 745.45 541.44 743.89 540.80 742.26 540.80 Z M 637.78 546.92 L 742.26 546.92 L 742.26 847.23 L 637.78 847.23 L 637.78 546.92 Z" fill="#000000" fill-rule="evenodd" node-id="33" stroke="none" target-height="493.50003" target-width="313.46002" target-x="533.29" target-y="450.33"></path></svg>